<svg xmlns="http://www.w3.org/2000/svg" fill="none" viewBox="0 0 24 24" stroke-width="1.5" stroke="currentColor">
  <path stroke-linecap="round" stroke-linejoin="round" d="M15.59 14.37a6 6 0 01-5.84 7.38v-4.82m5.84-2.56a12.032 12.032 0 00-5.84-2.56l-2.735 2.735a6 6 0 007.38 5.84l2.735-2.735m0-5.84a12.032 12.032 0 01-2.56-5.84l2.735-2.735a6 6 0 015.84 7.38l-2.735 2.735" />
  <path stroke-linecap="round" stroke-linejoin="round" d="M3.75 12.375l2.735 2.735m0 0a6 6 0 007.38 5.84l2.735-2.735M6.485 15.11a6 6 0 015.84-7.38l2.735 2.735m-8.575 4.645a12.031 12.031 0 002.56-5.84L3.75 6.625l2.735 2.735z" />
</svg>
